<svg width="75" height="20" viewBox="0 0 75 20" fill="none" xmlns="http://www.w3.org/2000/svg">
<path d="M4.704 18.88C6.168 18.76 7.008 18.496 7.008 17.392V2.56H6.552C3 2.56 1.848 3.88 0.456 7.144H0.36L1.152 2.2H16.56L15.024 7.144H14.928C15.24 3.88 13.728 2.56 11.208 2.56H9.696V17.392C9.696 18.496 10.536 18.76 12 18.88V19H4.704V18.88ZM28.0912 19.288L24.1073 18.544L24.1313 18.52C23.3633 18.928 22.4033 19.168 21.2753 19.168C17.8913 19.168 15.4913 17.104 15.4913 13.648C15.4913 10.192 17.9393 7.216 22.9553 7.216C24.4913 7.216 25.8593 7.504 27.1553 8.104V17.032C27.1553 18.328 27.3713 18.736 28.0912 19.216V19.288ZM18.0353 12.328C18.0353 15.784 20.0513 18.472 22.7153 18.472C23.6033 18.472 24.1793 18.16 24.6593 17.632C24.6833 17.392 24.7073 17.104 24.7073 16.72V8.992C23.9873 8.2 23.0753 7.672 21.8033 7.672C19.3793 7.672 18.0353 9.52 18.0353 12.328ZM34.5585 19.168C32.6865 19.168 30.9105 18.544 29.9025 17.752L31.2945 15.448H31.3425C31.3185 17.536 33.5745 18.784 35.4705 18.784C37.0785 18.784 37.6545 17.92 37.6545 16.792C37.6545 15.256 36.5265 14.608 34.6065 14.32C30.9345 13.768 30.1905 11.92 30.1905 10.624C30.1905 8.464 32.2065 7.216 34.8225 7.216C36.6225 7.216 38.2305 7.816 39.1665 8.584L37.6065 10.84H37.5585C37.6785 8.8 35.6145 7.576 33.9585 7.576C32.3745 7.576 31.9905 8.656 31.9905 9.496C31.9905 11.128 33.5505 11.632 35.0865 11.896C38.4705 12.448 39.3825 13.96 39.3825 15.448C39.3825 17.584 37.5345 19.168 34.5585 19.168ZM49.5124 19V18.592L45.1444 13.48H44.3044L49.1764 8.656C49.6324 8.2 49.8724 7.696 48.6964 7.504L48.7444 7.36H52.8484L52.8004 7.504C51.7924 7.624 50.2084 8.2 48.1444 10.264L46.5124 11.896L49.9204 15.832C51.5524 17.728 52.2484 18.376 53.4964 19H49.5124ZM39.7444 2.8V2.656L44.3284 0.519999L44.2084 1.48V16.672C44.2084 17.968 44.3764 18.64 45.5764 18.904V19H41.5444L41.7604 17.512V3.184C41.7604 2.224 41.2564 2.344 39.7444 2.8ZM57.4198 19.384L55.4038 18.784L55.4758 17.344V5.992C55.4758 4.984 54.9718 5.08 53.3878 5.536V5.392L58.1158 3.208L57.9238 4.24V7.36H60.8278L60.7078 7.936H57.9238V18.568L60.9478 18.472V18.568L57.9238 19.384H57.4198ZM68.0443 19.168C64.3483 19.168 61.7803 16.744 61.7803 13.192C61.7803 9.664 64.3483 7.216 68.0443 7.216C71.7643 7.216 74.3083 9.616 74.3083 13.192C74.3083 16.72 71.7643 19.168 68.0443 19.168ZM64.2283 11.56C64.2283 14.824 66.0283 18.76 68.9803 18.76C70.8283 18.76 71.8603 17.272 71.8603 14.824C71.8603 11.536 70.0603 7.624 67.1083 7.624C65.2603 7.624 64.2283 9.112 64.2283 11.56Z" fill="black"/>
</svg>
